<?xml version="1.0" encoding="UTF-8"?>
<svg xmlns="http://www.w3.org/2000/svg" width="376" height="225" viewBox="0 0 376 225" fill="none">
  <path d="M354.767 223.169H21.571C21.571 223.169 -0.224096 180.994 0.00174305 146.259C0.221067 112.526 26.4173 79.7967 61.6231 67.3503C79.51 61.0223 103.527 60.0023 120.113 51.312C132.266 44.9478 141.419 34.996 152.062 26.774C190.165 -2.66747 248.5 -7.85728 294.123 11.3499C339.746 30.5571 368.085 71.8157 374.714 116.34C382.17 166.41 354.767 223.169 354.767 223.169Z" fill="#FFE1D0"></path>
  <path d="M105.011 175.636C96.8472 189.732 92.1757 206.094 92.1757 223.548H33.1777V223.226C33.1777 222.893 33.1777 222.561 33.1826 222.229C33.4145 194.53 40.9329 168.578 53.9138 146.16L105.011 175.636Z" fill="#05A8AA"></path>
  <path d="M140.124 140.557C125.647 148.924 113.568 160.961 105.153 175.394C105.108 175.475 105.057 175.556 105.011 175.636L53.9141 146.16V146.155C53.9597 146.075 54.0047 145.999 54.0552 145.918C67.6411 122.544 87.1929 103.046 110.62 89.5086L140.124 140.557Z" fill="#03CBCD"></path>
  <path d="M265.546 89.5086L236.047 140.557C235.996 140.526 235.951 140.501 235.901 140.476C221.826 132.371 205.499 127.734 188.084 127.734V68.7872C216.248 68.7872 242.648 76.3034 265.405 89.4277C265.45 89.4533 265.5 89.4837 265.546 89.5086Z" fill="#FFAF83"></path>
  <path d="M322.253 146.155V146.16L271.151 175.636C271.106 175.556 271.056 175.475 271.01 175.394C262.595 160.961 250.516 148.924 236.043 140.557L265.542 89.5086C288.969 103.046 308.521 122.544 322.112 145.918C322.162 145.999 322.208 146.075 322.253 146.155Z" fill="#F28E8C"></path>
  <path d="M342.985 223.226V223.548H283.992C283.992 206.093 279.321 189.732 271.152 175.636L322.255 146.16C335.236 168.578 342.749 194.53 342.981 222.229C342.985 222.561 342.985 222.893 342.985 223.226Z" fill="#EE7674"></path>
  <path d="M16.5293 139.856C17.2949 138.368 17.6837 137.631 18.4732 136.17C22.7591 138.493 27.0445 140.816 31.3304 143.139C32.5282 140.923 33.1418 139.833 34.3978 137.687C35.2378 138.182 35.6576 138.43 36.4976 138.925C34.5064 142.327 33.5469 144.072 31.7061 147.649C26.6476 145.052 21.5884 142.454 16.5293 139.856Z" fill="#6BA294"></path>
  <path d="M37.2006 136.03C36.0597 136.47 34.9037 136.351 33.733 135.647C30.6574 133.799 29.1197 132.875 26.0436 131.027C24.8734 130.324 24.2343 129.329 24.1452 128.034C24.0556 126.74 24.5405 125.234 25.6108 123.559C26.6811 121.885 27.8311 120.832 29.0301 120.39C30.2285 119.947 31.3883 120.128 32.5102 120.907C35.4592 122.953 36.934 123.976 39.883 126.022C41.0054 126.8 41.5994 127.8 41.6847 129.013C41.7694 130.227 41.322 131.572 40.3522 133.091C39.3818 134.608 38.3409 135.592 37.2006 136.03ZM37.9472 129.221C34.8412 127.164 33.2888 126.135 30.1829 124.077C29.2478 123.458 28.4018 123.721 27.6584 124.884C26.9151 126.047 27.0248 126.937 27.9734 127.535C31.1239 129.522 32.6991 130.516 35.8501 132.504C36.7988 133.102 37.6122 132.85 38.3045 131.767C38.9968 130.683 38.8823 129.84 37.9472 129.221Z" fill="#6BA294"></path>
  <path d="M30.1758 117.165C31.056 115.903 31.5007 115.279 32.4005 114.044C37.0377 116.591 39.3432 117.887 43.9262 120.519C43.9419 120.497 43.9501 120.487 43.9658 120.465C40.1898 116.747 38.3181 114.867 34.6088 111.071C35.6487 109.7 36.1743 109.023 37.238 107.685C41.7851 110.402 44.0435 111.782 48.5303 114.586C48.5471 114.565 48.5552 114.555 48.5721 114.535C44.9275 110.693 43.122 108.755 39.5431 104.843C40.401 103.806 40.8338 103.292 41.7064 102.275C45.4753 106.628 49.2753 110.943 53.1175 115.232C51.9875 116.585 51.4299 117.271 50.3276 118.662C46.3349 116.285 44.3263 115.114 40.2837 112.811C40.2669 112.833 40.2582 112.844 40.2414 112.866C43.4347 116.263 45.0458 117.947 48.2968 121.28C47.1451 122.794 46.5776 123.561 45.4591 125.119C40.3858 122.419 35.2979 119.772 30.1758 117.165Z" fill="#6BA294"></path>
  <path d="M334.476 100.188C335.454 101.387 335.937 101.993 336.895 103.219C334.715 104.947 333.625 105.811 331.445 107.54C332.434 108.805 332.923 109.446 333.889 110.742C336.107 109.063 337.216 108.223 339.433 106.544C340.368 107.799 340.83 108.432 341.744 109.713C337.135 113.053 332.526 116.394 327.917 119.734C327.086 118.57 326.666 117.993 325.816 116.854C328.267 114.998 329.492 114.07 331.944 112.214C330.991 110.936 330.508 110.305 329.533 109.056C327.123 110.966 325.918 111.921 323.509 113.831C322.639 112.718 322.199 112.167 321.311 111.077C325.7 107.448 330.088 103.818 334.476 100.188Z" fill="#FF9358"></path>
  <path d="M354.257 130.737C355.003 132.092 355.37 132.775 356.09 134.154C353.635 135.461 352.407 136.115 349.952 137.422C350.697 138.846 351.062 139.564 351.779 141.012C354.262 139.76 355.504 139.134 357.988 137.882C358.682 139.284 359.023 139.99 359.691 141.415C354.556 143.871 349.421 146.327 344.285 148.782C343.678 147.488 343.368 146.845 342.737 145.571C345.483 144.187 346.855 143.495 349.6 142.111C348.893 140.682 348.532 139.973 347.797 138.569C345.084 140.014 343.727 140.737 341.012 142.182C340.357 140.93 340.023 140.309 339.346 139.076C344.316 136.297 349.287 133.517 354.257 130.737Z" fill="#FF9358"></path>
  <path d="M343.434 112.118C344.332 113.419 344.776 114.076 345.652 115.403C340.925 118.571 336.197 121.738 331.469 124.906C330.673 123.7 330.27 123.102 329.453 121.92C334.113 118.653 338.774 115.386 343.434 112.118Z" fill="#FF9358"></path>
  <path d="M334.27 127.655C334.397 126.469 335.032 125.497 336.191 124.744C339.202 122.789 340.707 121.811 343.717 119.856C344.876 119.103 346.037 118.944 347.2 119.405C348.364 119.866 349.464 120.932 350.468 122.613C351.472 124.294 351.9 125.788 351.767 127.051C351.633 128.315 350.955 129.282 349.75 129.959C349.241 130.246 348.985 130.389 348.476 130.675C347.748 129.368 347.38 128.719 346.632 127.435C347.195 127.103 347.476 126.938 348.039 126.606C349.006 126.037 349.143 125.151 348.438 123.969C347.732 122.785 346.895 122.498 345.942 123.089C342.766 125.056 341.178 126.04 338.003 128.007C337.063 128.589 336.929 129.423 337.587 130.525C338.244 131.627 339.041 131.906 339.994 131.345C341.145 130.667 341.721 130.328 342.872 129.65C342.486 128.987 342.291 128.657 341.9 128C342.735 127.496 343.153 127.244 343.987 126.74C345.134 128.664 345.696 129.64 346.797 131.618C344.85 132.712 343.876 133.259 341.93 134.352C340.725 135.029 339.568 135.127 338.461 134.672C337.353 134.217 336.358 133.224 335.448 131.7C334.538 130.177 334.141 128.842 334.27 127.655Z" fill="#FF9358"></path>
  <path d="M189.713 68.7998H186.455V128.064H189.713V68.7998Z" fill="white"></path>
  <path d="M237.309 141.621L234.488 139.991L264.13 88.703L266.958 90.3195L266.817 90.566L237.309 141.621Z" fill="white"></path>
  <path d="M104.341 177.135L53.1094 147.582L54.7237 144.753L54.8649 144.833L105.969 174.313L104.341 177.135Z" fill="white"></path>
  <path d="M138.856 141.621L109.207 90.3195L112.036 88.7029L112.177 88.95L141.677 139.991L138.856 141.621Z" fill="white"></path>
  <path d="M271.827 177.135L270.199 174.313L321.448 144.753L323.065 147.582L322.923 147.662L271.827 177.135Z" fill="white"></path>
  <path d="M343.803 223.556H342.174C342.174 196.488 335.043 169.869 321.551 146.576C308.027 123.218 288.52 103.73 265.139 90.2184C241.824 76.7395 215.178 69.6153 188.085 69.6153C160.991 69.6153 134.346 76.74 111.03 90.2184C87.6495 103.73 68.1433 123.218 54.6188 146.576C41.1269 169.869 33.9962 196.488 33.9962 223.556H32.3672C32.3672 196.202 39.5739 169.3 53.2092 145.759C66.8759 122.155 86.5884 102.462 110.215 88.8077C133.778 75.186 160.705 67.9858 188.085 67.9858C215.464 67.9858 242.391 75.186 265.955 88.8077C289.582 102.462 309.294 122.155 322.961 145.759C336.596 169.301 343.803 196.202 343.803 223.556Z" fill="white"></path>
  <path d="M193.127 64.1133V127.626C191.454 127.541 189.776 127.495 188.083 127.495C170.527 127.495 154.068 132.183 139.888 140.384C138.946 140.927 138.014 141.486 137.091 142.065L105.576 87.5329C105.627 87.5025 105.682 87.4726 105.733 87.4422C131.462 72.6058 161.299 64.1133 193.127 64.1133Z" fill="#FFA26E"></path>
  <g opacity="0.54">
    <path d="M193.131 127.626C191.458 127.54 189.78 127.495 188.087 127.495C170.53 127.495 154.072 132.183 139.892 140.383C138.95 140.927 138.018 141.486 137.095 142.065L105.842 87.9862L105.736 87.4426L193.131 127.626Z" fill="#FF9358"></path>
  </g>
  <path d="M136.812 143.204L104.473 87.2467L105.316 86.7439C131.921 71.4036 162.282 63.2988 193.129 63.2988H193.944V128.484L193.088 128.44C191.407 128.354 189.724 128.31 188.085 128.31C171.277 128.31 154.753 132.729 140.298 141.088C139.319 141.654 138.412 142.199 137.527 142.755L136.812 143.204ZM106.692 87.8315L137.378 140.929C138.055 140.514 138.76 140.095 139.483 139.678C154.185 131.175 170.991 126.681 188.085 126.681C189.473 126.681 190.892 126.712 192.314 126.773V64.9294C162.247 65.07 132.671 72.9799 106.692 87.8315Z" fill="white"></path>
  <path d="M273.877 223.548H272.248C272.248 208.748 268.352 194.195 260.981 181.463L260.852 181.24C253.474 168.575 242.862 157.992 230.17 150.647C230.137 150.628 230.113 150.614 230.086 150.601C217.34 143.255 202.83 139.385 188.081 139.385C173.336 139.385 158.826 143.255 146.119 150.577L145.982 150.655C133.301 157.991 122.688 168.573 115.304 181.25L115.185 181.454C107.812 194.198 103.918 208.751 103.918 223.548H102.289C102.289 208.465 106.259 193.63 113.771 180.647L113.89 180.443C121.423 167.51 132.24 156.723 145.18 149.237L145.319 149.158C158.26 141.701 173.051 137.755 188.081 137.755C203.116 137.755 217.907 141.701 230.856 149.165C230.875 149.172 230.931 149.203 230.994 149.241C243.924 156.723 254.739 167.51 262.265 180.43L262.396 180.655C269.905 193.626 273.877 208.462 273.877 223.548Z" fill="white"></path>
  <path d="M188.164 148.825H186.535V138.577L188.164 138.572V148.825Z" fill="white"></path>
  <path d="M127.837 162.881L126.686 164.032L134.301 171.647L135.452 170.496L127.837 162.881Z" fill="white"></path>
  <path d="M246.856 162.886L239.971 169.771L241.123 170.923L248.008 164.037L246.856 162.886Z" fill="white"></path>
  <path d="M118.413 196.435L108.312 192.333L108.92 190.822L109.53 191.067L119.026 194.926L118.413 196.435Z" fill="white"></path>
  <path d="M218.561 144.5L214.812 153.729L216.322 154.342L220.07 145.113L218.561 144.5Z" fill="white"></path>
  <path d="M157.629 155.279L153.531 145.583L155.034 144.953L155.139 145.203L159.13 154.644L157.629 155.279Z" fill="white"></path>
  <path d="M265.311 189.72L256.506 193.442L257.14 194.942L265.945 191.221L265.311 189.72Z" fill="white"></path>
  <path d="M114.497 210.416L103.742 208.353L104.044 206.753L104.733 206.882L114.804 208.817L114.497 210.416Z" fill="white"></path>
  <path d="M202.528 139.942L200.627 149.866L202.227 150.172L204.127 140.248L202.528 139.942Z" fill="white"></path>
  <path d="M140.317 152.759L138.969 153.673L144.95 162.493L146.298 161.578L140.317 152.759Z" fill="white"></path>
  <path d="M257.214 175.159L249.234 180.571L250.149 181.919L258.128 176.507L257.214 175.159Z" fill="white"></path>
  <path d="M116.48 176.631L115.594 177.998L124.708 183.904L125.594 182.537L116.48 176.631Z" fill="white"></path>
  <path d="M232.892 151.792L227.537 160.058L228.904 160.943L234.259 152.678L232.892 151.792Z" fill="white"></path>
  <path d="M170.984 150.774L168.816 140.618L170.407 140.265L170.437 140.399L172.577 150.434L170.984 150.774Z" fill="white"></path>
  <path d="M270.283 205L260.975 206.99L261.315 208.583L270.624 206.593L270.283 205Z" fill="white"></path>
  <path d="M252.63 222.926H123.533V224.555H252.63V222.926Z" fill="white"></path>
  <path d="M185.026 222.3L197.119 218.995L193.598 210.553L174.937 165.836C174.291 164.424 172.596 164.885 172.826 166.417L181.224 211.574L183.197 222.163L185.026 222.3Z" fill="#EC574E"></path>
  <path d="M185.327 224.63L184.88 223.063L195.938 219.907L174.398 166.003C174.268 165.709 174.091 165.624 174.014 165.647C173.935 165.67 173.828 165.835 173.879 166.183L184.102 223.561L182.499 223.848L172.271 166.442C172.08 165.119 172.81 164.296 173.566 164.08C174.323 163.862 175.375 164.177 175.9 165.373L198.121 220.977L185.327 224.63Z" fill="white"></path>
  <path d="M203.113 222.872C203.113 217.761 200.24 213.319 196.025 211.073C194.158 210.075 192.016 209.51 189.75 209.51C185.073 209.51 180.961 211.914 178.585 215.55C177.2 217.651 176.395 220.165 176.395 222.872H203.113Z" fill="#FF9358"></path>
</svg>
